<svg xmlns:x="http://ns.adobe.com/Extensibility/1.0/" xmlns:i="http://ns.adobe.com/AdobeIllustrator/10.0/" xmlns:graph="http://ns.adobe.com/Graphs/1.0/" xmlns="http://www.w3.org/2000/svg" xmlns:xlink="http://www.w3.org/1999/xlink" xmlns:a="http://ns.adobe.com/AdobeSVGViewerExtensions/3.0/" version="1.1" baseProfile="tiny" x="0px" y="0px" width="15px" height="15px" viewBox="0 0 42 42" xml:space="preserve"><g><path d="M37.499 5.5H35.5v5.52c0 1.23-0.234 1.48-1.484 1.48h-6.017c-1.25 0-1.499-0.271-1.499-1.5V5.5h-11v5.52 c0 1.23-0.25 1.48-1.5 1.48H8c-1.25 0-1.5-0.271-1.5-1.5V5.5h-2c-2.58 0-3 0.561-3 3v28.998c-0.01 2.4 0.6 3 3 3.002h32.999 c2.55 0 3.001-0.531 3.001-3.002V8.5C40.5 6.2 40.1 5.5 37.5 5.5z M35.5 35.5h-29v-20h29V35.5z"/><path d="M10 10.5h2c1.25 0 1.5-0.25 1.5-1.48v-5c0-1.25-0.27-1.5-1.5-1.5L10 2.5C8.811 2.5 8.5 2.8 8.5 4v5 C8.5 10.2 8.8 10.5 10 10.5z"/><path d="M29.999 10.5h2c1.25 0 1.501-0.25 1.501-1.48v-5c0-1.25-0.27-1.5-1.5-1.5L30 2.5c-1.189 0-1.5 0.28-1.5 1.5v5 C28.5 10.2 28.7 10.5 30 10.5z"/><rect x="10.5" y="19.5" width="5" height="5"/><rect x="18.5" y="19.5" width="5" height="5"/><rect x="26.5" y="19.5" width="5" height="5"/><rect x="10.5" y="27.5" width="5" height="5"/><rect x="18.5" y="27.5" width="5" height="5"/><rect x="26.5" y="27.5" width="5" height="5"/></g></svg>