<svg xmlns="http://www.w3.org/2000/svg" xmlns:xlink="http://www.w3.org/1999/xlink" version="1.1" x="0px" y="0px" width="100px" height="100px" viewBox="0 0 100 100" enable-background="new 0 0 100 100" xml:space="preserve"><g><path fill-rule="evenodd" clip-rule="evenodd" fill="#181616" d="M49.998 11.963C28.461 12 11 29.4 11 51 c0 17.2 11.2 31.8 26.7 37.003c1.952 0.4 2.662-0.84 2.662-1.877c0-0.924-0.034-3.375-0.051-6.633 c-10.849 2.359-13.138-5.229-13.138-5.229c-1.774-4.505-4.331-5.703-4.331-5.703c-3.541-2.418 0.269-2.371 0.269-2.371 c3.914 0.3 6 4 6 4.018c3.478 6 9.1 4.2 11.3 3.243c0.353-2.525 1.363-4.24 2.476-5.217 c-8.659-0.984-17.763-4.33-17.763-19.274c0-4.259 1.519-7.741 4.013-10.468c-0.399-0.982-1.74-4.947 0.383-10.319 c0 0 3.274-1.048 10.7 4.001c3.109-0.869 6.446-1.303 9.763-1.316c3.312 0 6.7 0.4 9.8 1.3 c7.447-5.049 10.716-4.001 10.716-4.001c2.128 5.4 0.8 9.3 0.4 10.319c2.5 2.7 4 6.2 4 10.5 c0 14.979-9.117 18.279-17.805 19.241c1.398 1.2 2.6 3.6 2.6 7.229c0 5.211-0.047 9.416-0.047 10.7 c0 1 0.7 2.3 2.7 1.873C77.836 82.8 89 68.2 89 50.965C89 29.4 71.5 12 50 11.963z"/></g></svg>