<svg xmlns="http://www.w3.org/2000/svg" width="558pt" height="204pt" xmlns:xlink="http://www.w3.org/1999/xlink" viewBox="0 0 558 204"><defs><symbol overflow="visible"><path/></symbol><symbol id="a" overflow="visible"><path d="M5.13-5.58h1.2c.26 0 .4 0 .4-.28 0-.16-.14-.16-.37-.16H5.2l.3-1.6c.05-.27.25-1.27.33-1.44.12-.27.36-.47.65-.47.07 0 .43 0 .7.25-.62.06-.76.55-.76.75 0 .33.25.5.52.5.36 0 .76-.3.76-.85 0-.64-.64-.96-1.22-.96-.46 0-1.34.26-1.76 1.64-.1.3-.13.43-.47 2.18H3.3c-.27 0-.42 0-.42.27 0 .17.12.17.4.17h.9L3.15-.06c-.25 1.34-.48 2.6-1.22 2.6-.04 0-.4 0-.67-.24.64-.03.77-.53.77-.75 0-.32-.25-.5-.52-.5-.36 0-.77.32-.77.84 0 .63.63.96 1.2.96.76 0 1.32-.83 1.57-1.36.45-.88.77-2.56.78-2.66zm0 0"/></symbol><symbol id="b" overflow="visible"><path d="M3.97-8.72c0-.28-.2-.5-.52-.5-.4 0-.76.36-.76.74 0 .26.2.5.52.5.33 0 .75-.32.75-.74zM2.9-3.47c.16-.4.16-.44.3-.8.13-.3.2-.5.2-.75 0-.64-.46-1.15-1.15-1.15C.95-6.17.4-4.14.4-4.02c0 .14.15.14.18.14.14 0 .14-.03.22-.25.37-1.3.93-1.73 1.4-1.73.1 0 .35 0 .35.45 0 .28-.1.57-.14.7-.12.37-.74 2-.96 2.6-.14.35-.33.82-.33 1.12 0 .65.5 1.14 1.17 1.14C3.57.16 4.1-1.88 4.1-2c0-.14-.13-.14-.18-.14-.14 0-.14.05-.2.25C3.45-1 3-.15 2.28-.15c-.23 0-.33-.14-.33-.45 0-.37.08-.56.4-1.42zm0 0"/></symbol><symbol id="c" overflow="visible"><path d="M3.33-9.53c0-.02 0-.16-.17-.16-.33 0-1.35.12-1.7.15-.12.02-.27.03-.27.28 0 .18.1.18.32.18.67 0 .7.1.7.24 0 .1-.13.58-.2.86L.87-3.45c-.15.7-.2.92-.2 1.42 0 1.3.72 2.2 1.75 2.2 1.66 0 3.38-2.1 3.38-4.1 0-1.27-.75-2.24-1.86-2.24-.64 0-1.22.4-1.64.84zm-1.3 5.28c.08-.3.08-.34.2-.5.7-.9 1.32-1.1 1.68-1.1.5 0 .88.4.88 1.3 0 .83-.45 2.42-.7 2.96-.47.94-1.1 1.44-1.66 1.44-.47 0-.92-.37-.92-1.4 0-.27 0-.53.22-1.4zm0 0"/></symbol><symbol overflow="visible"><path/></symbol><symbol id="d" overflow="visible"><path d="M4.05-4.9C5.2-5.3 6-6.28 6-7.38 6-8.53 4.77-9.3 3.44-9.3 2.02-9.3.97-8.45.97-7.4c0 .46.3.73.7.73.44 0 .72-.3.72-.7 0-.7-.67-.7-.88-.7.43-.7 1.35-.87 1.85-.87.58 0 1.35.3 1.35 1.56 0 .16-.03.97-.4 1.58-.4.67-.88.72-1.24.74-.1 0-.44.04-.53.04-.13 0-.22.02-.22.16 0 .16.1.16.34.16h.6c1.15 0 1.67.95 1.67 2.3 0 1.92-.96 2.32-1.58 2.32-.6 0-1.64-.25-2.13-1.06.5.06.93-.24.93-.77 0-.5-.4-.8-.8-.8-.33 0-.77.2-.77.8C.6-.6 1.9.3 3.4.3 5.1.3 6.4-.96 6.4-2.4c0-1.13-.88-2.23-2.33-2.5zm0 0"/></symbol><symbol id="e" overflow="visible"><path d="M4.63 3.34c0-.03 0-.06-.25-.3-1.74-1.76-2.2-4.4-2.2-6.52 0-2.44.54-4.86 2.26-6.6.18-.17.18-.2.18-.25 0-.1-.06-.14-.14-.14-.14 0-1.4.95-2.2 2.72-.73 1.55-.9 3.1-.9 4.27 0 1.07.15 2.76.92 4.34.84 1.72 2.04 2.62 2.18 2.62.08 0 .14-.03.14-.14zm0 0"/></symbol><symbol id="f" overflow="visible"><path d="M4.1-2.3v1.2c0 .5-.02.66-1.05.66h-.3V0c.58-.05 1.3-.05 1.88-.05.6 0 1.32 0 1.9.05v-.44h-.3C5.2-.44 5.17-.6 5.17-1.1v-1.2h1.4v-.43h-1.4v-6.35c0-.28 0-.37-.22-.37-.12 0-.17 0-.28.17L.4-2.73v.43zm.1-.43H.77l3.4-5.2zm0 0"/></symbol><symbol id="g" overflow="visible"><path d="M4.03-3.48c0-1.1-.16-2.8-.92-4.36C2.3-9.56 1.1-10.47.95-10.47c-.1 0-.14.06-.14.14 0 .05 0 .08.26.33 1.36 1.38 2.16 3.6 2.16 6.52 0 2.37-.52 4.84-2.24 6.6-.18.16-.18.2-.18.22 0 .1.04.14.14.14.14 0 1.4-.93 2.22-2.7.7-1.55.87-3.1.87-4.26zm0 0"/></symbol><symbol id="h" overflow="visible"><path d="M1.77-1.08l1.48-1.44C5.42-4.44 6.27-5.2 6.27-6.58c0-1.6-1.25-2.72-2.96-2.72C1.74-9.3.7-8.02.7-6.77c0 .8.7.8.74.8.23 0 .72-.2.72-.75 0-.37-.25-.73-.74-.73-.1 0-.14 0-.2 0 .34-.9 1.1-1.4 1.9-1.4C4.4-8.86 5-7.74 5-6.6c0 1.1-.7 2.2-1.47 3.08L.83-.52C.7-.36.7-.32.7 0h5.17l.4-2.42h-.35c-.08.4-.17 1.03-.3 1.23-.1.12-1.03.12-1.34.12zm0 0"/></symbol><symbol id="i" overflow="visible"><path d="M4.1-8.94c0-.33 0-.36-.32-.36-.86.9-2.1.9-2.55.9v.43c.3 0 1.1 0 1.83-.36v7.22c0 .5-.03.66-1.3.66h-.43V0c.48-.05 1.7-.05 2.26-.05.54 0 1.76 0 2.24.05v-.44H5.4c-1.26 0-1.3-.15-1.3-.67zm0 0"/></symbol><symbol id="k" overflow="visible"><path d="M6.42-4.47c0-1.1-.08-2.23-.56-3.26C5.22-9.06 4.08-9.3 3.48-9.3c-.82 0-1.85.36-2.42 1.68-.45.95-.5 2.04-.5 3.15 0 1.05.03 2.3.6 3.36C1.77.02 2.8.3 3.47.3 4.24.3 5.3.03 5.92-1.3c.44-.98.52-2.06.52-3.17zM3.47 0c-.53 0-1.36-.34-1.6-1.7-.17-.83-.17-2.1-.17-2.92 0-.9 0-1.83.1-2.58.28-1.66 1.32-1.78 1.67-1.78.47 0 1.4.25 1.65 1.62.15.78.15 1.84.15 2.74 0 1.03 0 1.98-.16 2.87C4.9-.42 4.1 0 3.48 0zm0 0"/></symbol><symbol id="m" overflow="visible"><path d="M9.58-4.56c.22 0 .48 0 .48-.28 0-.3-.26-.3-.47-.3H1.22c-.18 0-.45 0-.45.3 0 .28.27.28.47.28zm0 2.7c.22 0 .48 0 .48-.28 0-.27-.26-.27-.48-.27H1.25c-.2 0-.47 0-.47.26 0 .28.27.28.45.28zm0 0"/></symbol><symbol overflow="visible"><path/></symbol><symbol id="j" overflow="visible"><path d="M5.98-.13V-.7H5.4c-1.26 0-1.17-.02-1.17-.53v-7.83c0-.33-.12-.5-.5-.5-.93.94-2.04.9-2.64.9v.7c.42 0 1.34-.04 1.82-.3v7.03c0 .5.1.53-1.15.53h-.6v.72C1.8-.05 3.03-.05 3.6-.05c.54 0 1.76 0 2.38.07zm0 0"/></symbol><symbol id="l" overflow="visible"><path d="M6.56-4.6c0-1.1-.08-2.23-.56-3.26-.64-1.33-1.92-1.7-2.52-1.7-.82 0-2 .5-2.57 1.8C.46-6.8.4-5.7.4-4.6c0 1.05.08 2.4.66 3.47C1.66 0 2.8.3 3.46.3c.77 0 1.96-.4 2.6-1.74.42-.97.5-2.04.5-3.15zM5.1-4.76c0 1.05 0 2-.15 2.9-.2 1.32-.84 1.6-1.48 1.6-.53 0-1.22-.2-1.47-1.54-.16-.86-.16-2.14-.16-2.97 0-.9 0-1.8.1-2.56.28-1.65 1.2-1.65 1.53-1.65.47 0 1.23.12 1.5 1.5.14.78.14 1.84.14 2.7zm0 0"/></symbol><symbol overflow="visible"><path/></symbol><symbol id="n" overflow="visible"><path d="M2.83-4.6c.08-.18.1-.26.1-.32 0-.3-.3-.53-.6-.53-.36 0-.47.3-.52.45L.53-.77c0 .02-.05.15-.05.16 0 .1.3.2.37.2.08 0 .08-.02.16-.16zm0 0"/></symbol></defs><g><use x="145.586" y="11.212" xlink:href="#a"/><use x="153.907" y="11.212" xlink:href="#b"/><use x="158.714" y="11.212" xlink:href="#c"/><use x="164.71" y="11.212" xlink:href="#d"/><use x="171.684" y="11.212" xlink:href="#e"/><use x="177.109" y="11.212" xlink:href="#f"/><use x="184.083" y="11.212" xlink:href="#g"/><use x="66.206" y="58.84" xlink:href="#a"/><use x="74.527" y="58.84" xlink:href="#b"/><use x="79.334" y="58.84" xlink:href="#c"/><use x="85.33" y="58.84" xlink:href="#d"/><use x="92.304" y="58.84" xlink:href="#e"/><use x="97.729" y="58.84" xlink:href="#d"/><use x="104.703" y="58.84" xlink:href="#g"/><path fill="none" stroke="#000" stroke-width=".5586" stroke-miterlimit="10" d="M147.7 19.62L108 43.45"/><g fill="rgb(19.999695%,19.999695%,100%)"><use x="26.516" y="106.454" xlink:href="#a"/><use x="34.837" y="106.454" xlink:href="#b"/></g><use x="39.644" y="106.454" fill="rgb(19.999695%,19.999695%,100%)" xlink:href="#c"/><g fill="rgb(19.999695%,19.999695%,100%)"><use x="45.64" y="106.454" xlink:href="#d"/><use x="52.614" y="106.454" xlink:href="#e"/></g><g fill="rgb(19.999695%,19.999695%,100%)"><use x="58.039" y="106.454" xlink:href="#h"/><use x="65.013" y="106.454" xlink:href="#g"/></g><path fill="none" stroke="#000" stroke-width=".5586" stroke-miterlimit="10" d="M78.25 67.25L58.4 91.07"/><g fill="rgb(100%,19.999695%,19.999695%)"><use x=".07" y="154.082" xlink:href="#a"/><use x="8.391" y="154.082" xlink:href="#b"/></g><use x="13.198" y="154.082" fill="rgb(100%,19.999695%,19.999695%)" xlink:href="#c"/><g fill="rgb(100%,19.999695%,19.999695%)"><use x="19.194" y="154.082" xlink:href="#d"/><use x="26.168" y="154.082" xlink:href="#e"/></g><g fill="rgb(100%,19.999695%,19.999695%)"><use x="31.593" y="154.082" xlink:href="#i"/><use x="38.567" y="154.082" xlink:href="#g"/></g><path fill="none" stroke="#000" stroke-width=".5586" stroke-miterlimit="10" d="M41.87 114.87L28.64 138.7"/><use x="18.536" y="202.858" xlink:href="#j"/><path fill="none" stroke="#000" stroke-width=".5586" stroke-miterlimit="10" d="M22.02 162.5v26.14"/><use x="52.976" y="154.082" xlink:href="#a"/><use x="61.297" y="154.082" xlink:href="#b"/><use x="66.104" y="154.082" xlink:href="#c"/><use x="72.1" y="154.082" xlink:href="#d"/><use x="79.074" y="154.082" xlink:href="#e"/><use x="84.499" y="154.082" xlink:href="#k"/><use x="91.473" y="154.082" xlink:href="#g"/><path fill="none" stroke="#000" stroke-width=".5586" stroke-miterlimit="10" d="M55.1 114.87l13.23 23.82"/><use x="71.456" y="202.704" xlink:href="#l"/><path fill="none" stroke="#000" stroke-width=".5586" stroke-miterlimit="10" d="M74.94 162.5v26"/><g fill="rgb(100%,19.999695%,19.999695%)"><use x="105.896" y="106.454" xlink:href="#a"/><use x="114.217" y="106.454" xlink:href="#b"/></g><use x="119.024" y="106.454" fill="rgb(100%,19.999695%,19.999695%)" xlink:href="#c"/><g fill="rgb(100%,19.999695%,19.999695%)"><use x="125.02" y="106.454" xlink:href="#d"/><use x="131.994" y="106.454" xlink:href="#e"/></g><g fill="rgb(100%,19.999695%,19.999695%)"><use x="137.419" y="106.454" xlink:href="#i"/><use x="144.393" y="106.454" xlink:href="#g"/></g><path fill="none" stroke="#000" stroke-width=".5586" stroke-miterlimit="10" d="M98.08 67.25l19.86 23.82"/><g fill="rgb(19.999695%,19.999695%,100%)"><use x="224.952" y="58.84" xlink:href="#a"/><use x="233.273" y="58.84" xlink:href="#b"/></g><use x="238.08" y="58.84" fill="rgb(19.999695%,19.999695%,100%)" xlink:href="#c"/><g fill="rgb(19.999695%,19.999695%,100%)"><use x="244.076" y="58.84" xlink:href="#d"/><use x="251.05" y="58.84" xlink:href="#e"/></g><g fill="rgb(19.999695%,19.999695%,100%)"><use x="256.475" y="58.84" xlink:href="#h"/><use x="263.449" y="58.84" xlink:href="#g"/></g><path fill="none" stroke="#000" stroke-width=".5586" stroke-miterlimit="10" d="M187.37 19.62l39.7 23.83"/><path fill="none" stroke="rgb(19.999695%,19.999695%,100%)" stroke-width="1.1158" stroke-miterlimit="10" d="M75.36 96.53l143.7-34.5" stroke-dasharray="2.98883,2.98883"/><path fill="none" stroke="rgb(19.999695%,19.999695%,100%)" stroke-width=".8932" stroke-miterlimit="10" d="M216.27 59.7c.43 1.03 2.75 2.15 3.32 2.2-.5.3-2.05 2.35-1.98 3.46" stroke-linecap="round" stroke-linejoin="round"/><path fill="none" stroke="rgb(100%,19.999695%,19.999695%)" stroke-width="1.1158" stroke-miterlimit="10" d="M48.46 138.7l52.04-23.4" stroke-dasharray="2.98883,2.98883"/><path fill="none" stroke="rgb(100%,19.999695%,19.999695%)" stroke-width=".8995799999999999" stroke-miterlimit="10" d="M97.3 113.53c.63.92 3.12 1.6 3.7 1.53-.43.4-1.58 2.7-1.3 3.78" stroke-linecap="round" stroke-linejoin="round"/><use x="419.986" y="34.326" xlink:href="#a"/><use x="428.307" y="34.326" xlink:href="#b"/><use x="433.114" y="34.326" xlink:href="#c"/><use x="439.11" y="34.326" xlink:href="#d"/><use x="446.084" y="34.326" xlink:href="#e"/><use x="451.509" y="34.326" xlink:href="#f"/><use x="458.483" y="34.326" xlink:href="#g"/><use x="467.771" y="34.326" xlink:href="#m"/><use x="482.497" y="34.326" xlink:href="#d"/><use x="351.358" y="82.346" xlink:href="#a"/><use x="359.688" y="82.346" xlink:href="#h"/><use x="366.66" y="77.278" xlink:href="#n"/><use x="369.876" y="77.278" xlink:href="#n"/><use x="377.664" y="82.346" xlink:href="#m"/><use x="392.391" y="82.346" xlink:href="#h"/><path fill="none" stroke="#000" stroke-width=".5586" stroke-miterlimit="10" d="M434.35 43.07l-39.78 23.86"/><path fill="none" stroke="#000" stroke-width=".44978999999999997" stroke-miterlimit="10" d="M431.76 42c.55.66 2.52.95 2.95.86-.28.33-.95 2.2-.64 3" stroke-linecap="round" stroke-linejoin="round"/><use x="313.278" y="129.974" xlink:href="#a"/><use x="321.608" y="129.974" xlink:href="#h"/><use x="328.58" y="124.906" xlink:href="#n"/><use x="336.378" y="129.974" xlink:href="#m"/><use x="351.091" y="129.974" xlink:href="#i"/><path fill="none" stroke="#000" stroke-width=".5586" stroke-miterlimit="10" d="M365.35 90.48l-20.07 24.08"/><path fill="none" stroke="#000" stroke-width=".4466" stroke-miterlimit="10" d="M362.56 90.34c.73.43 2.68.05 3.06-.18-.16.4-.18 2.4.37 3.04" stroke-linecap="round" stroke-linejoin="round"/><use x="288.778" y="177.196" xlink:href="#a"/><use x="297.108" y="177.196" xlink:href="#h"/><use x="307.96" y="177.196" xlink:href="#m"/><use x="322.675" y="177.196" xlink:href="#i"/><path fill="none" stroke="#000" stroke-width=".5586" stroke-miterlimit="10" d="M328.96 138.17l-13.56 24.4"/><path fill="none" stroke="#000" stroke-width=".4466" stroke-miterlimit="10" d="M326.2 138.55c.8.3 2.64-.44 2.97-.75-.08.44.27 2.4.94 2.93" stroke-linecap="round" stroke-linejoin="round"/><use x="341.698" y="177.196" xlink:href="#a"/><use x="350.028" y="177.196" xlink:href="#i"/><use x="360.88" y="177.196" xlink:href="#m"/><use x="375.595" y="177.196" xlink:href="#k"/><path fill="none" stroke="#000" stroke-width=".5586" stroke-miterlimit="10" d="M342.4 138.17l13.55 24.4"/><path fill="none" stroke="#000" stroke-width=".4466" stroke-miterlimit="10" d="M341.25 140.73c.66-.53 1.02-2.5.94-2.93.3.3 2.16 1.04 2.96.75" stroke-linecap="round" stroke-linejoin="round"/><use x="392.658" y="129.974" xlink:href="#a"/><use x="400.988" y="129.974" xlink:href="#i"/><use x="407.96" y="124.906" xlink:href="#n"/><use x="415.758" y="129.974" xlink:href="#m"/><use x="430.471" y="129.974" xlink:href="#i"/><path fill="none" stroke="#000" stroke-width=".5586" stroke-miterlimit="10" d="M385.38 90.48l20.07 24.08"/><path fill="none" stroke="#000" stroke-width=".4466" stroke-miterlimit="10" d="M384.73 93.2c.56-.65.54-2.63.38-3.04.38.23 2.33.6 3.07.18" stroke-linecap="round" stroke-linejoin="round"/><use x="510.104" y="82.346" xlink:href="#a"/><use x="518.434" y="82.346" xlink:href="#i"/><use x="525.406" y="77.278" xlink:href="#n"/><use x="528.622" y="77.278" xlink:href="#n"/><use x="536.41" y="82.346" xlink:href="#m"/><use x="551.137" y="82.346" xlink:href="#i"/><path fill="none" stroke="#000" stroke-width=".5586" stroke-miterlimit="10" d="M475.12 43.07l39.78 23.86"/><path fill="none" stroke="#000" stroke-width=".44978999999999997" stroke-miterlimit="10" d="M475.4 45.86c.32-.8-.35-2.67-.64-3 .43.1 2.4-.2 2.95-.85" stroke-linecap="round" stroke-linejoin="round"/><path fill="none" stroke="rgb(50.196838%,50.196838%,0%)" stroke-width="1.1158" stroke-miterlimit="10" d="M333.94 162.6l54.6-24.58" stroke-dasharray="2.98883,2.98883"/><path fill="none" stroke="rgb(50.196838%,50.196838%,0%)" stroke-width=".8995799999999999" stroke-miterlimit="10" d="M385.34 136.27c.62.92 3.1 1.6 3.7 1.53-.44.4-1.6 2.7-1.3 3.78" stroke-linecap="round" stroke-linejoin="round"/><path fill="none" stroke="rgb(50.196838%,50.196838%,0%)" stroke-width="1.1158" stroke-miterlimit="10" d="M363 119.54l141.2-33.9" stroke-dasharray="2.98883,2.98883"/><path fill="none" stroke="rgb(50.196838%,50.196838%,0%)" stroke-width=".8932" stroke-miterlimit="10" d="M501.42 83.32c.43 1 2.75 2.13 3.33 2.18-.5.3-2.05 2.36-1.97 3.46" stroke-linecap="round" stroke-linejoin="round"/></g></svg>