<svg xmlns="http://www.w3.org/2000/svg" width="364.38pt" height="193.8pt" xmlns:xlink="http://www.w3.org/1999/xlink" viewBox="0 0 364.38 193.8"><defs><symbol overflow="visible"><path/></symbol><symbol id="a" overflow="visible"><path d="M3.02-3.23h.96c.75 0 .66 0 .66.28 0 .08 0 .18-.08.48 0 .06-.03.1-.03.1 0 .1.25.3.3.3.1 0 .28-.2.33-.37L5.7-4.6c.03-.12.03-.13.03-.17 0 0-.18-.28-.3-.28-.1 0-.27.22-.32.38-.2.78-.24.8-1.1.8h-.7l.6-2.36c.1-.36-.06-.24.38-.24h1.3c1.23 0 1.3.17 1.3.94 0 .23 0 .26-.04.53-.03.14-.03.16-.03.2 0 .03.23.27.33.27s.28-.22.3-.4l.2-1.74c.03-.27-.2-.44-.44-.44H2.3c-.2 0-.47.16-.47.37 0 .1.26.26.45.26.38 0 .47-.16.47.02 0 .04 0 .06-.05.25L1.4-.94c-.12.4.05.3-.74.3-.18 0-.46.17-.46.36 0 .12.3.28.33.28.28 0 1.03-.03 1.3-.03.34 0 1.17.03 1.5.03.1 0 .37-.16.37-.34 0-.08-.04-.1-.04-.24-.2-.06-.24-.06-.46-.06-.22 0-.26 0-.5-.02-.3-.03-.17.1-.17-.03 0 0 0-.07.05-.22l.58-2.3zm0 0"/></symbol><symbol id="o" overflow="visible"><path d="M.7-.75C.67-.6.6-.37.6-.3c0 .16.32.4.48.4.12 0 .47-.23.5-.38 0 .05.17-.53.22-.78l.23-.9c.05-.23.1-.45.16-.67.03-.17.1-.46.13-.5.14-.3.5-1.06 1.45-1.06.45 0 .36.22.36.54 0 .63-.48 1.9-.66 2.33-.07.24-.1.35-.1.46 0 .46.54.98 1 .98.95 0 1.48-1.6 1.48-1.68 0-.1-.25-.28-.28-.28-.1 0-.28.2-.33.36-.2.67-.36 1.06-.84 1.06-.17 0-.06.07-.06-.15 0-.24.08-.5.18-.7.18-.53.6-1.64.6-2.2 0-.67-.6-1.23-1.3-1.23-.9 0-1.52.68-1.7.92l.3.1c-.04-.55-.62-1.03-1.1-1.03-.45 0-.76.43-.84.56-.23.5-.37 1.1-.37 1.14 0 .1.3.26.3.26.12 0 .3-.17.35-.4.17-.7.2-1.02.56-1.02.2 0 .14-.02.14.3 0 .23-.03.34-.16.85zm0 0"/></symbol><symbol overflow="visible"><path/></symbol><symbol id="b" overflow="visible"><path d="M.66-.64c-.04.1-.08.27-.08.3 0 .15.33.4.44.4.12 0 .37-.14.4-.2.03-.06.14-.42.2-.56.02-.14.1-.46.13-.64.05-.14.1-.3.13-.47.07-.3.03-.2.23-.5.2-.28.4-.58.93-.58.4 0 .2.16.2.3 0 .4-.3 1.2-.4 1.5-.08.17-.1.24-.1.36 0 .36.5.78.85.78.7 0 1.2-1.15 1.2-1.25 0-.08-.28-.28-.3-.28-.1 0-.3.25-.34.32-.16.55-.26.64-.53.64-.15 0 0 .1 0-.04 0-.16.06-.25.18-.56.08-.22.36-.96.36-1.35 0-.7-.72-1-1.1-1-.57 0-1.1.42-1.3.7l.32.13c-.04-.47-.64-.83-.94-.83-.3 0-.6.28-.68.44-.16.26-.32.8-.32.83 0 .1.3.28.33.28.1 0 .28-.2.33-.4.1-.4.06-.56.33-.56.2 0 .04-.04.04.15 0 .14-.06.4-.1.57-.06.2-.13.5-.17.63zm0 0"/></symbol><symbol overflow="visible"><path/></symbol><symbol id="c" overflow="visible"><path d="M5.2-1.58c.1 0 .46-.15.46-.33 0-.18-.36-.35-.47-.35H1.02c-.1 0-.48.17-.48.34s.36.32.48.32zm0 0"/></symbol><symbol overflow="visible"><path/></symbol><symbol id="d" overflow="visible"><path d="M2.52-4.63c0-.18-.2-.4-.47-.4-.5.5-1 .45-1.5.45v.64c.37 0 .97-.04 1.03-.08v3.25c0 .24.2.13-.5.13H.6v.66C.95 0 1.8-.03 2.06-.03c.22 0 1.1.03 1.43.05v-.66h-.45c-.7 0-.5.1-.5-.13zm0 0"/></symbol><symbol id="e" overflow="visible"><path d="M3.52-1.66h-.4c-.06.35-.07.63-.15.7C2.9-.93 2.52-1 2.4-1H1.14l.14.34c.73-.66.96-.84 1.4-1.17.5-.43 1.03-1 1.03-1.67 0-.84-.92-1.55-1.8-1.55-.87 0-1.65.8-1.65 1.44 0 .36.48.6.56.6.17 0 .56-.32.56-.57 0-.12-.24-.58-.33-.58.14-.3.42-.25.75-.25.7 0 .86.35.86.9 0 .62-.37.96-.6 1.2L.38-.57C.3-.54.26-.4.26 0h3.22l.28-1.66zm0 0"/></symbol><symbol id="i" overflow="visible"><path d="M3.78-2.42c0-.77-.14-1.46-.47-1.94-.2-.3-.77-.66-1.32-.66-1.62 0-1.8 2.1-1.8 2.6S.35.14 1.97.14c1.6 0 1.8-2.06 1.8-2.56zM1.98-.45c-.32 0-.56 0-.7-.57-.1-.4-.1-.98-.1-1.5 0-.5 0-1.03.12-1.42.14-.54.4-.5.68-.5.38 0 .54.05.66.44.13.4.13.9.13 1.48 0 .52 0 1.04-.1 1.5-.14.6-.4.57-.7.57zm0 0"/></symbol><symbol id="j" overflow="visible"><path d="M1.9-2.33c.55 0 .74.2.74.92 0 .87-.3.93-.7.93-.28 0-.77 0-.85-.1-.02 0 .24-.45.24-.6 0-.2-.36-.56-.57-.56-.2 0-.58.3-.58.6C.2-.5 1.1.13 1.93.13 2.9.14 3.77-.7 3.77-1.4c0-.54-.63-1.3-1.4-1.44v.4c.72-.28 1.18-1 1.18-1.42 0-.55-.82-1.16-1.6-1.16C1.2-5.02.4-4.45.4-3.9c0 .24.35.57.55.57.22 0 .55-.34.55-.54s-.33-.55-.17-.54c0 0 .34-.02.6-.02.32 0 .57-.05.57.56 0 .3-.05.48-.23.7-.22.25-.3.2-.63.24-.17 0-.2 0-.22 0 0 0-.26.22-.26.3 0 .1.25.3.37.3zm0 0"/></symbol><symbol id="k" overflow="visible"><path d="M3.88-1.34v-.44h-.8V-4.7c0-.14-.17-.4-.3-.4-.1 0-.26.07-.34.18L.08-1.64v.5h2.04v.37c0 .24.2.13-.37.13h-.38v.66c.55-.04 1-.05 1.24-.05.27 0 .7 0 1.26.05v-.66h-.38c-.57 0-.4.1-.4-.13v-.37h.8zm-1.7-2.8v2.36H.9L2.5-4zm0 0"/></symbol><symbol overflow="visible"><path/></symbol><symbol id="f" overflow="visible"><path d="M2.08-.7c0-.28-.4-.7-.7-.7-.3 0-.7.42-.7.7 0 .3.4.7.7.7.3 0 .7-.4.7-.7zm0 0"/></symbol><symbol id="n" overflow="visible"><path d="M3.1-6.55c0-.23-.16-.42-.48-.42-.67.7-1.42.64-1.92.64v.64c.4 0 1.1-.03 1.32-.16v4.9c0 .37.14.32-.75.32h-.5v.66c.53-.05 1.4-.05 1.8-.05.38 0 1.26 0 1.77.05v-.66h-.48c-.9 0-.77.06-.77-.3zm0 0"/></symbol><symbol id="q" overflow="visible"><path d="M1.4-.8l1.04-1.04C4-3.22 4.64-3.88 4.64-4.86c0-1.14-1.06-2.1-2.28-2.1C1.23-6.97.3-5.9.3-5c0 .56.7.72.73.72.17 0 .7-.28.7-.7 0-.24-.37-.68-.7-.68-.1 0-.1 0 .1-.07.15-.4.53-.6 1.1-.6.9 0 1.16.64 1.16 1.47 0 .8-.46 1.45-1 2.08L.47-.64C.38-.54.3-.4.3 0h4.04l.33-2.06h-.6c-.07.47-.1.78-.2.94-.06.07-.6.03-.8.03h-1.8zm0 0"/></symbol><symbol overflow="visible"><path/></symbol><symbol id="p" overflow="visible"><path d="M6.56-2.3c.17 0 .57-.12.57-.33 0-.2-.4-.32-.57-.32h-5.4c-.16 0-.53.12-.53.33 0 .2.37.32.54.32zm0 0"/></symbol><clipPath id="g"><path d="M0 164h29v29.8H0zm0 0"/></clipPath><clipPath id="h"><path d="M30 164h35v29.8H30zm0 0"/></clipPath><clipPath id="l"><path d="M254 164h35v29.8h-35zm0 0"/></clipPath><clipPath id="m"><path d="M289 164h36v29.8h-36zm0 0"/></clipPath></defs><g><path fill="none" stroke="#000" stroke-width=".399" stroke-miterlimit="10" d="M171.16 12.02c0-6.53-5.3-11.82-11.82-11.82-6.53 0-11.82 5.3-11.82 11.82 0 6.53 5.3 11.82 11.82 11.82 6.53 0 11.82-5.3 11.82-11.82zm0 0"/><use x="153.43" y="14.68" xlink:href="#a"/><use x="159.83" y="16.17" xlink:href="#b"/><path fill="none" stroke="#000" stroke-width=".399" stroke-miterlimit="10" d="M104.78 54.54c0-9-7.3-16.3-16.3-16.3-9.02 0-16.32 7.3-16.32 16.3s7.3 16.3 16.3 16.3c9.02 0 16.32-7.3 16.32-16.3zm0 0"/><use x="77.46" y="56.78" xlink:href="#a"/><use x="83.86" y="58.27" xlink:href="#b"/><use x="88.79" y="58.27" xlink:href="#c"/><use x="95.01" y="58.27" xlink:href="#d"/><path fill="none" stroke="#000" stroke-width=".399" stroke-miterlimit="10" d="M149 18.23L102.7 46M69.35 97.06c0-9-7.3-16.3-16.3-16.3-9.02 0-16.32 7.3-16.32 16.3s7.3 16.3 16.3 16.3c9.02 0 16.32-7.3 16.32-16.3zm0 0"/><use x="42.03" y="99.3" xlink:href="#a"/><use x="48.43" y="100.79" xlink:href="#b"/><use x="53.36" y="100.79" xlink:href="#c"/><use x="59.58" y="100.79" xlink:href="#e"/><path fill="none" stroke="#000" stroke-width=".399" stroke-miterlimit="10" d="M77.9 67.24L63.6 84.36"/><use x="28.03" y="139.11" xlink:href="#f"/><use x="28.03" y="143.1" xlink:href="#f"/><use x="28.03" y="147.08" xlink:href="#f"/><path fill="none" stroke="#000" stroke-width=".399" stroke-miterlimit="10" d="M45 111.52l-10.68 19.24"/><g clip-path="url(#g)"><path fill="none" stroke="#000" stroke-width=".399" stroke-miterlimit="10" d="M23.2 182.1c0-6.35-5.15-11.5-11.5-11.5S.2 175.75.2 182.1s5.15 11.5 11.5 11.5 11.5-5.15 11.5-11.5zm0 0"/></g><use x="6.26" y="184.76" xlink:href="#a"/><use x="12.66" y="186.25" xlink:href="#d"/><path fill="none" stroke="#000" stroke-width=".399" stroke-miterlimit="10" d="M24.83 150.6l-8.62 20.68"/><g clip-path="url(#h)"><path fill="none" stroke="#000" stroke-width=".399" stroke-miterlimit="10" d="M58.63 182.1c0-6.35-5.15-11.5-11.5-11.5-6.34 0-11.5 5.15-11.5 11.5s5.16 11.5 11.5 11.5c6.35 0 11.5-5.15 11.5-11.5zm0 0"/></g><use x="41.7" y="184.76" xlink:href="#a"/><use x="48.1" y="186.25" xlink:href="#i"/><path fill="none" stroke="#000" stroke-width=".399" stroke-miterlimit="10" d="M34 150.6l8.63 20.68"/><use x="75.28" y="139.11" xlink:href="#f"/><use x="75.28" y="143.1" xlink:href="#f"/><use x="75.28" y="147.08" xlink:href="#f"/><path fill="none" stroke="#000" stroke-width=".399" stroke-miterlimit="10" d="M61.07 111.52l10.7 19.24M140.2 97.06c0-9-7.3-16.3-16.3-16.3s-16.3 7.3-16.3 16.3 7.3 16.3 16.3 16.3 16.3-7.3 16.3-16.3zm0 0"/><use x="112.89" y="99.3" xlink:href="#a"/><use x="119.29" y="100.79" xlink:href="#b"/><use x="124.22" y="100.79" xlink:href="#c"/><use x="130.44" y="100.79" xlink:href="#j"/><path fill="none" stroke="#000" stroke-width=".399" stroke-miterlimit="10" d="M99.06 67.24l14.26 17.12"/><use x="98.9" y="139.11" xlink:href="#f"/><use x="98.9" y="143.1" xlink:href="#f"/><use x="98.9" y="147.08" xlink:href="#f"/><path fill="none" stroke="#000" stroke-width=".399" stroke-miterlimit="10" d="M115.87 111.52l-10.68 19.24"/><use x="146.15" y="139.11" xlink:href="#f"/><use x="146.15" y="143.1" xlink:href="#f"/><use x="146.15" y="147.08" xlink:href="#f"/><path fill="none" stroke="#000" stroke-width=".399" stroke-miterlimit="10" d="M131.94 111.52l10.7 19.24M246.52 54.54c0-9-7.3-16.3-16.3-16.3-9.02 0-16.32 7.3-16.32 16.3s7.3 16.3 16.3 16.3 16.32-7.3 16.32-16.3zm0 0"/><use x="219.19" y="56.78" xlink:href="#a"/><use x="225.59" y="58.27" xlink:href="#b"/><use x="230.52" y="58.27" xlink:href="#c"/><use x="236.74" y="58.27" xlink:href="#e"/><path fill="none" stroke="#000" stroke-width=".399" stroke-miterlimit="10" d="M169.7 18.23L216 46M211.08 97.06c0-9-7.3-16.3-16.3-16.3s-16.32 7.3-16.32 16.3 7.3 16.3 16.3 16.3c9.02 0 16.32-7.3 16.32-16.3zm0 0"/><use x="183.76" y="99.3" xlink:href="#a"/><use x="190.16" y="100.79" xlink:href="#b"/><use x="195.09" y="100.79" xlink:href="#c"/><use x="201.31" y="100.79" xlink:href="#j"/><path fill="none" stroke="#000" stroke-width=".399" stroke-miterlimit="10" d="M219.62 67.24l-14.26 17.12"/><use x="169.77" y="139.11" xlink:href="#f"/><use x="169.77" y="143.1" xlink:href="#f"/><use x="169.77" y="147.08" xlink:href="#f"/><path fill="none" stroke="#000" stroke-width=".399" stroke-miterlimit="10" d="M186.74 111.52l-10.7 19.24"/><use x="217.01" y="139.11" xlink:href="#f"/><use x="217.01" y="143.1" xlink:href="#f"/><use x="217.01" y="147.08" xlink:href="#f"/><path fill="none" stroke="#000" stroke-width=".399" stroke-miterlimit="10" d="M202.8 111.52l10.7 19.24M281.95 97.06c0-9-7.3-16.3-16.3-16.3-9.02 0-16.32 7.3-16.32 16.3s7.3 16.3 16.3 16.3c9.02 0 16.32-7.3 16.32-16.3zm0 0"/><use x="254.63" y="99.3" xlink:href="#a"/><use x="261.03" y="100.79" xlink:href="#b"/><use x="265.96" y="100.79" xlink:href="#c"/><use x="272.18" y="100.79" xlink:href="#k"/><path fill="none" stroke="#000" stroke-width=".399" stroke-miterlimit="10" d="M240.8 67.24l14.25 17.12"/><use x="240.63" y="139.11" xlink:href="#f"/><use x="240.63" y="143.1" xlink:href="#f"/><use x="240.63" y="147.08" xlink:href="#f"/><path fill="none" stroke="#000" stroke-width=".399" stroke-miterlimit="10" d="M257.6 111.52l-10.68 19.24"/><use x="287.88" y="139.11" xlink:href="#f"/><use x="287.88" y="143.1" xlink:href="#f"/><use x="287.88" y="147.08" xlink:href="#f"/><path fill="none" stroke="#000" stroke-width=".399" stroke-miterlimit="10" d="M273.68 111.52l10.68 19.24"/><g clip-path="url(#l)"><path fill="none" stroke="#000" stroke-width=".399" stroke-miterlimit="10" d="M283.04 182.1c0-6.35-5.14-11.5-11.5-11.5-6.34 0-11.5 5.15-11.5 11.5s5.16 11.5 11.5 11.5c6.36 0 11.5-5.15 11.5-11.5zm0 0"/></g><use x="266.11" y="184.76" xlink:href="#a"/><use x="272.51" y="186.25" xlink:href="#d"/><path fill="none" stroke="#000" stroke-width=".399" stroke-miterlimit="10" d="M284.67 150.6l-8.62 20.68"/><g clip-path="url(#m)"><path fill="none" stroke="#000" stroke-width=".399" stroke-miterlimit="10" d="M318.48 182.1c0-6.35-5.15-11.5-11.5-11.5s-11.5 5.15-11.5 11.5 5.15 11.5 11.5 11.5 11.5-5.15 11.5-11.5zm0 0"/></g><use x="301.54" y="184.76" xlink:href="#a"/><use x="307.94" y="186.25" xlink:href="#i"/><path fill="none" stroke="#000" stroke-width=".399" stroke-miterlimit="10" d="M293.85 150.6l8.62 20.68"/><use x="347.01" y="185.31" xlink:href="#n"/><use x="348.12" y="139.11" xlink:href="#f"/><use x="348.12" y="143.1" xlink:href="#f"/><use x="348.12" y="147.08" xlink:href="#f"/><use x="337.93" y="99.86" xlink:href="#o"/><use x="346.12" y="99.86" xlink:href="#p"/><use x="356.08" y="99.86" xlink:href="#q"/><use x="337.93" y="57.34" xlink:href="#o"/><use x="346.12" y="57.34" xlink:href="#p"/><use x="356.08" y="57.34" xlink:href="#n"/><use x="346.51" y="14.16" xlink:href="#o"/></g></svg>