<svg xmlns="http://www.w3.org/2000/svg" width="278.96pt" height="184.91pt" xmlns:xlink="http://www.w3.org/1999/xlink" viewBox="0 0 278.96 184.91"><defs><symbol overflow="visible"><path/></symbol><symbol id="a" overflow="visible"><path d="M3.66-3.98h.86c.2 0 .46-.16.46-.36 0-.1-.26-.3-.43-.3h-.63l.17-.95c.04-.2.13-.8.1-.76.22-.45.22-.45.44-.45.03 0 .17-.06.1-.12-.05 0-.33.5-.33.67 0 .23.37.52.55.52.27 0 .72-.4.72-.77 0-.45-.62-.86-1.03-.86-.34 0-1.16.34-1.45 1.34-.08.2-.1.3-.3 1.4h-.54c-.2 0-.48.17-.48.35 0 .13.26.3.45.3h.45L2.06-.2c-.17.95-.17 1.7-.7 1.7-.03 0-.16.05-.08.13.08-.02.33-.54.33-.68 0-.23-.33-.53-.52-.53-.27 0-.74.4-.74.78 0 .44.63.85 1.03.85.55 0 1.13-.75 1.18-.9.4-.74.67-2.07.68-2.13l.57-3zm0 0"/></symbol><symbol id="b" overflow="visible"><path d="M3-6.4c0-.2-.3-.52-.53-.52-.28 0-.72.44-.72.7 0 .2.3.52.55.52.23 0 .7-.4.7-.7zm-.75 3.76c.1-.3.1-.3.22-.58.08-.2.12-.34.12-.53 0-.45-.5-.98-1-.98-.93 0-1.5 1.6-1.5 1.7 0 .1.3.26.3.26.12 0 .3-.18.33-.34.27-.95.5-1.1.85-1.1.08 0 .06-.14.06.17 0 .22-.06.42-.1.5-.1.28-.54 1.44-.7 1.86-.1.26-.2.6-.2.8-.02.46.5.98.97.98.95 0 1.5-1.6 1.5-1.68 0-.1-.27-.28-.3-.28-.1 0-.28.2-.33.36-.17.63-.33 1.06-.83 1.06-.17 0-.08.07-.08-.15 0-.24.06-.38.3-1zm0 0"/></symbol><symbol id="c" overflow="visible"><path d="M2.55-6.97s-.17-.28-.3-.28c-.22 0-.95.08-1.22.1-.08 0-.36.2-.36.37 0 .12.27.28.42.28.46 0 .3-.1.3.02 0 .06-.1.4-.13.6L.45-2.63C.33-2.13.3-1.96.3-1.6.3-.68 1 .1 1.73.1 2.9.1 4.3-1.52 4.3-2.96c0-.9-.7-1.76-1.5-1.76-.44 0-1 .34-1.28.64l.3.13zM1.6-3.2c.07-.22.02-.13.12-.24.48-.65.8-.75 1.08-.75.36 0 .43.15.43.8 0 .57-.32 1.73-.5 2.1-.32.68-.6.86-1 .86-.34 0-.5-.1-.5-.84 0-.2 0-.38.16-1zm0 0"/></symbol><symbol overflow="visible"><path/></symbol><symbol id="d" overflow="visible"><path d="M1.4-.8l1.04-1.04C4-3.22 4.64-3.88 4.64-4.86c0-1.14-1.06-2.1-2.28-2.1C1.23-6.97.3-5.9.3-5c0 .56.7.72.73.72.17 0 .7-.28.7-.7 0-.24-.37-.68-.7-.68-.1 0-.1 0 .1-.07.15-.4.53-.6 1.1-.6.9 0 1.16.64 1.16 1.47 0 .8-.46 1.45-1 2.08L.47-.64C.38-.54.3-.4.3 0h4.04l.33-2.06h-.6c-.07.47-.1.78-.2.94-.06.07-.6.03-.8.03h-1.8zm0 0"/></symbol><symbol id="e" overflow="visible"><path d="M3.47 2.23c0-.03-.05-.17-.22-.34C2 .63 1.73-1.13 1.73-2.67c0-1.73.33-3.36 1.57-4.6.12-.12.17-.24.17-.27 0-.08-.2-.28-.27-.28-.1 0-1.17.85-1.76 2.1C.92-4.6.8-3.47.8-2.65c0 .8.12 2 .67 3.1C2.07 1.7 3.1 2.5 3.2 2.5c.07 0 .27-.2.27-.27zm0 0"/></symbol><symbol id="f" overflow="visible"><path d="M2.75-1.8v.86c0 .36.16.3-.58.3h-.4v.66c.6-.05 1.12-.05 1.54-.05.43 0 .95 0 1.53.05v-.66h-.38c-.73 0-.58.06-.58-.3v-.7h1v-.64h-1v-4.38c0-.18-.17-.42-.34-.42-.08 0-.23.05-.33.17L.1-2.17v.52h2.65zm.23-.48H.88L3.1-5.72l-.3-.1v3.54zm0 0"/></symbol><symbol id="g" overflow="visible"><path d="M3.05-2.66c0-.76-.1-1.98-.66-3.1C1.8-7 .76-7.82.66-7.82c-.06 0-.28.2-.28.27 0 .03.04.16.22.33 1 1 1.5 2.47 1.5 4.54C2.13-.96 1.8.7.56 1.94c-.12.12-.17.26-.17.3 0 .06.2.26.27.26.1 0 1.16-.84 1.75-2.1.52-1.1.63-2.2.63-3.06zm0 0"/></symbol><symbol id="h" overflow="visible"><path d="M2.9-3.52c.8-.26 1.55-1.12 1.55-1.9 0-.8-1.04-1.55-2-1.55-1 0-1.93.77-1.93 1.53 0 .33.4.67.68.67.3 0 .68-.37.68-.67 0-.5-.65-.65-.5-.65.14-.2.67-.3 1.03-.3.43 0 .8.07.8.96 0 .13.02.58-.25 1.02-.3.48-.5.47-.75.47-.08 0-.3.03-.4.03-.07 0-.32.2-.32.3 0 .1.25.26.43.26h.44c.82 0 1 .52 1 1.5 0 1.34-.5 1.47-.93 1.47-.43 0-1.06-.12-1.2-.37.02 0 .5-.37.5-.76 0-.36-.43-.72-.72-.72-.25 0-.75.3-.75.75 0 .9 1.1 1.72 2.2 1.72 1.23 0 2.3-1.06 2.3-2.08 0-.83-.8-1.76-1.84-1.98zm0 0"/></symbol><symbol id="i" overflow="visible"><path d="M3.1-6.55c0-.23-.16-.42-.48-.42-.67.7-1.42.64-1.92.64v.64c.4 0 1.1-.03 1.32-.16v4.9c0 .37.14.32-.75.32h-.5v.66c.53-.05 1.4-.05 1.8-.05.38 0 1.26 0 1.77.05v-.66h-.48c-.9 0-.77.06-.77-.3zm0 0"/></symbol><symbol id="j" overflow="visible"><path d="M4.75-3.34c0-.8-.05-1.6-.4-2.35-.46-.94-1.44-1.27-1.85-1.27-.6 0-1.52.42-1.92 1.36C.28-4.93.2-4.15.2-3.35c0 .73.1 1.75.5 2.5C1.14-.04 2 .22 2.48.22c.54 0 1.47-.38 1.9-1.3.32-.7.37-1.48.37-2.26zm-2.27 3c-.4 0-.8-.07-.98-1.02-.1-.6-.1-1.5-.1-2.1 0-.65 0-1.3.07-1.84.2-1.18.76-1.12 1-1.12.34 0 .83 0 1 1 .1.56.1 1.33.1 1.95 0 .75 0 1.42-.1 2.06-.16.95-.53 1.07-1 1.07zm0 0"/></symbol></defs><g><use x="159.23" y="10.79" xlink:href="#a"/><use x="165.174" y="10.79" xlink:href="#b"/><use x="168.606" y="10.79" xlink:href="#c"/><use x="172.89" y="10.79" xlink:href="#d"/><use x="177.871" y="10.79" xlink:href="#e"/><use x="181.746" y="10.79" xlink:href="#f"/><use x="186.728" y="10.79" xlink:href="#g"/><use x="74.18" y="53.31" xlink:href="#a"/><use x="80.124" y="53.31" xlink:href="#b"/><use x="83.556" y="53.31" xlink:href="#c"/><use x="87.84" y="53.31" xlink:href="#d"/><use x="92.822" y="53.31" xlink:href="#e"/><use x="96.696" y="53.31" xlink:href="#h"/><use x="101.678" y="53.31" xlink:href="#g"/><path fill="none" stroke="#000" stroke-width=".399" stroke-miterlimit="10" d="M157.9 16.8l-51.03 25.52"/><use x="31.66" y="95.83" fill="rgb(100%,19.999695%,19.999695%)" xlink:href="#a"/><g fill="rgb(100%,19.999695%,19.999695%)"><use x="37.604" y="95.83" xlink:href="#b"/><use x="41.036" y="95.83" xlink:href="#c"/></g><g fill="rgb(100%,19.999695%,19.999695%)"><use x="45.32" y="95.83" xlink:href="#d"/><use x="50.301" y="95.83" xlink:href="#e"/><use x="54.176" y="95.83" xlink:href="#d"/><use x="59.158" y="95.83" xlink:href="#g"/></g><path fill="none" stroke="#000" stroke-width=".399" stroke-miterlimit="10" d="M81.37 59.32L55.85 84.84"/><use x="3.32" y="138.35" xlink:href="#a"/><use x="9.264" y="138.35" xlink:href="#b"/><use x="12.696" y="138.35" xlink:href="#c"/><use x="16.98" y="138.35" xlink:href="#d"/><use x="21.962" y="138.35" xlink:href="#e"/><use x="25.836" y="138.35" xlink:href="#i"/><use x="30.818" y="138.35" xlink:href="#g"/><path fill="none" stroke="#000" stroke-width=".399" stroke-miterlimit="10" d="M41.68 101.84l-17 25.52"/><use x="16.51" y="181.59" xlink:href="#i"/><path fill="none" stroke="#000" stroke-width=".399" stroke-miterlimit="10" d="M19 144.36v27.3"/><use x="60.01" y="138.35" xlink:href="#a"/><use x="65.954" y="138.35" xlink:href="#b"/><use x="69.386" y="138.35" xlink:href="#c"/><use x="73.67" y="138.35" xlink:href="#d"/><use x="78.651" y="138.35" xlink:href="#e"/><use x="82.526" y="138.35" xlink:href="#j"/><use x="87.508" y="138.35" xlink:href="#g"/><path fill="none" stroke="#000" stroke-width=".399" stroke-miterlimit="10" d="M53.02 101.84l17 25.52"/><use x="73.21" y="181.59" xlink:href="#j"/><path fill="none" stroke="#000" stroke-width=".399" stroke-miterlimit="10" d="M75.7 144.36v27.3"/><use x="116.7" y="95.83" xlink:href="#a"/><use x="122.644" y="95.83" xlink:href="#b"/><use x="126.076" y="95.83" xlink:href="#c"/><use x="130.36" y="95.83" xlink:href="#d"/><use x="135.341" y="95.83" xlink:href="#e"/><use x="139.216" y="95.83" xlink:href="#i"/><use x="144.198" y="95.83" xlink:href="#g"/><path fill="none" stroke="#000" stroke-width=".399" stroke-miterlimit="10" d="M98.37 59.32l25.52 25.52"/><use x="129.9" y="139.07" xlink:href="#i"/><path fill="none" stroke="#000" stroke-width=".399" stroke-miterlimit="10" d="M132.4 101.84v27.3"/><use x="244.27" y="53.31" fill="rgb(100%,19.999695%,19.999695%)" xlink:href="#a"/><g fill="rgb(100%,19.999695%,19.999695%)"><use x="250.214" y="53.31" xlink:href="#b"/><use x="253.646" y="53.31" xlink:href="#c"/></g><g fill="rgb(100%,19.999695%,19.999695%)"><use x="257.93" y="53.31" xlink:href="#d"/><use x="262.911" y="53.31" xlink:href="#e"/><use x="266.786" y="53.31" xlink:href="#d"/><use x="271.768" y="53.31" xlink:href="#g"/></g><path fill="none" stroke="#000" stroke-width=".399" stroke-miterlimit="10" d="M191.9 16.8l51.05 25.52"/><use x="257.46" y="96.55" fill="rgb(19.999695%,19.999695%,100%)" xlink:href="#i"/><path fill="none" stroke="#000" stroke-width=".399" stroke-miterlimit="10" d="M259.95 59.32v27.3"/></g></svg>